<svg xmlns="http://www.w3.org/2000/svg" xmlns:xlink="http://www.w3.org/1999/xlink" width="500" zoomAndPan="magnify" viewBox="0 0 375 374.999991" height="500" preserveAspectRatio="xMidYMid meet" version="1.0"><defs><g/><clipPath id="619738de37"><path d="M 0.5 0.5 L 228.015625 0.5 L 228.015625 300.441406 L 0.5 300.441406 Z M 0.5 0.5 " clip-rule="nonzero"/></clipPath><clipPath id="a707e0eefa"><path d="M 92 124.011719 L 178 124.011719 L 178 244.847656 L 92 244.847656 Z M 92 124.011719 " clip-rule="nonzero"/></clipPath><clipPath id="b871c7f041"><path d="M 42.230469 172 L 54 172 L 54 184 L 42.230469 184 Z M 42.230469 172 " clip-rule="nonzero"/></clipPath><clipPath id="2077254fcb"><path d="M 42.230469 154 L 51 154 L 51 167 L 42.230469 167 Z M 42.230469 154 " clip-rule="nonzero"/></clipPath><clipPath id="4049531d2b"><path d="M 51 124.011719 L 137 124.011719 L 137 244.847656 L 51 244.847656 Z M 51 124.011719 " clip-rule="nonzero"/></clipPath><clipPath id="5bd90a8715"><path d="M 106 26.34375 L 123 26.34375 L 123 42 L 106 42 Z M 106 26.34375 " clip-rule="nonzero"/></clipPath><clipPath id="4d694b920d"><path d="M 124 32 L 137 32 L 137 44.847656 L 124 44.847656 Z M 124 32 " clip-rule="nonzero"/></clipPath><clipPath id="e9f4fed3b8"><path d="M 92.371094 32 L 105 32 L 105 44.847656 L 92.371094 44.847656 Z M 92.371094 32 " clip-rule="nonzero"/></clipPath><clipPath id="78cffc97f5"><path d="M 76.558594 134.917969 L 152.761719 134.917969 L 152.761719 189.347656 L 76.558594 189.347656 Z M 76.558594 134.917969 " clip-rule="nonzero"/></clipPath><clipPath id="c46ad9cca0"><rect x="0" width="185" y="0" height="36"/></clipPath><clipPath id="5f788f56fa"><rect x="0" width="36" y="0" height="19"/></clipPath><clipPath id="d15018ab92"><rect x="0" width="230" y="0" height="301"/></clipPath></defs><g transform="matrix(1, 0, 0, 1, 73, 37)"><g clip-path="url(#d15018ab92)"><g clip-path="url(#619738de37)"><path fill="#13325b" d="M 227.902344 78.828125 C 227.773438 68.917969 227.386719 60.742188 227 55.144531 C 226.9375 53.726562 225.714844 52.570312 224.296875 52.570312 C 216.894531 52.375 210.136719 49.414062 204.988281 44.71875 C 199.839844 39.953125 196.300781 33.453125 195.269531 26.117188 L 195.207031 25.859375 C 194.882812 24.507812 194.691406 23.027344 194.628906 21.480469 C 194.5 20 193.277344 18.84375 191.730469 18.90625 C 190.378906 18.972656 188.964844 19.035156 187.675781 19.035156 C 184.652344 19.035156 180.273438 18.007812 175.125 16.269531 C 167.402344 13.757812 157.941406 9.832031 147.578125 6.550781 C 137.214844 3.203125 125.953125 0.5 114.496094 0.5 C 99.242188 0.5 84.246094 5.261719 71.375 9.898438 C 64.9375 12.214844 59.015625 14.53125 53.867188 16.203125 C 48.71875 17.878906 44.339844 18.972656 41.316406 18.972656 C 39.964844 18.972656 38.613281 18.90625 37.261719 18.84375 C 35.78125 18.777344 34.492188 19.9375 34.363281 21.417969 C 34.238281 22.960938 34.109375 24.441406 33.785156 25.792969 L 33.722656 26.050781 C 32.691406 33.390625 29.152344 39.953125 24.003906 44.652344 C 18.855469 49.414062 12.097656 52.3125 4.695312 52.503906 C 3.277344 52.570312 2.121094 53.664062 1.992188 55.078125 C 1.605469 60.679688 1.21875 68.851562 1.089844 78.765625 C 0.898438 92.085938 0.574219 105.667969 0.574219 119.183594 C 0.574219 148.660156 2.054688 177.816406 10.035156 203.5625 C 14.027344 216.433594 19.625 228.40625 27.542969 239.089844 C 35.394531 249.773438 45.5625 259.109375 58.5 266.574219 C 79.613281 278.800781 93.257812 287.105469 101.558594 292.382812 C 105.742188 295.023438 108.574219 296.886719 110.375 298.109375 C 111.277344 298.691406 111.921875 299.140625 112.308594 299.398438 C 112.5 299.527344 112.628906 299.65625 112.757812 299.71875 L 112.886719 299.785156 C 113.851562 300.492188 115.203125 300.492188 116.167969 299.785156 C 116.8125 299.332031 129.558594 290.257812 170.492188 266.574219 C 183.429688 259.109375 193.597656 249.773438 201.449219 239.089844 C 213.292969 223.066406 219.984375 204.078125 223.78125 183.609375 C 227.582031 163.144531 228.417969 141.195312 228.417969 119.121094 C 228.417969 105.667969 228.09375 92.085938 227.902344 78.828125 Z M 213.679688 201.890625 C 209.816406 214.3125 204.472656 225.703125 197.007812 235.808594 C 189.542969 245.914062 180.015625 254.667969 167.722656 261.746094 C 133.675781 281.441406 119 291.09375 114.496094 294.121094 C 109.992188 291.03125 95.316406 281.375 61.269531 261.746094 C 48.976562 254.601562 39.449219 245.847656 31.984375 235.808594 C 20.785156 220.683594 14.347656 202.53125 10.679688 182.644531 C 7.011719 162.757812 6.175781 141.132812 6.175781 119.183594 C 6.175781 105.796875 6.496094 92.214844 6.6875 78.894531 C 6.816406 70.398438 7.140625 63.253906 7.460938 57.910156 C 15.183594 57.140625 22.199219 53.792969 27.734375 48.773438 C 33.785156 43.171875 37.96875 35.578125 39.191406 26.886719 C 39.386719 26.117188 39.515625 25.28125 39.644531 24.441406 C 40.222656 24.441406 40.738281 24.441406 41.316406 24.441406 C 45.5 24.441406 50.261719 23.15625 55.605469 21.417969 C 63.648438 18.777344 73.046875 14.917969 83.085938 11.699219 C 93.191406 8.480469 103.941406 5.972656 114.496094 5.972656 C 128.589844 5.972656 143.007812 10.410156 155.753906 15.046875 C 162.125 17.363281 168.046875 19.617188 173.453125 21.417969 C 178.792969 23.15625 183.558594 24.441406 187.742188 24.441406 C 188.320312 24.441406 188.898438 24.441406 189.414062 24.441406 C 189.542969 25.28125 189.671875 26.050781 189.863281 26.886719 C 191.085938 35.511719 195.269531 43.171875 201.320312 48.773438 C 206.792969 53.792969 213.871094 57.140625 221.660156 57.910156 C 221.980469 63.253906 222.304688 70.398438 222.429688 78.894531 C 222.625 92.214844 222.945312 105.730469 222.945312 119.183594 C 222.882812 148.40625 221.335938 177.109375 213.679688 201.890625 Z M 213.679688 201.890625 " fill-opacity="1" fill-rule="nonzero"/></g><path fill="#9f7944" d="M 140.097656 222.511719 C 141.761719 218.128906 138.785156 214.359375 138.785156 214.359375 C 138.785156 214.359375 134.3125 217.292969 132.542969 221.371094 C 130.777344 225.453125 132.566406 229.621094 132.566406 229.621094 C 132.566406 229.621094 138.441406 226.898438 140.097656 222.511719 " fill-opacity="1" fill-rule="nonzero"/><path fill="#9f7944" d="M 161.914062 202.386719 C 161.722656 198.011719 157.835938 195.84375 157.835938 195.84375 C 157.835938 195.84375 155.039062 200.023438 155.042969 204.203125 C 155.046875 208.378906 158.160156 211.296875 158.160156 211.296875 C 158.160156 211.296875 162.105469 206.765625 161.914062 202.386719 " fill-opacity="1" fill-rule="nonzero"/><path fill="#9f7944" d="M 143.992188 229.199219 C 139.128906 228.839844 133.417969 231.667969 133.417969 231.667969 C 133.417969 231.667969 134.953125 236.1875 139.929688 236.910156 C 144.914062 237.628906 151.242188 233.574219 151.242188 233.574219 C 151.242188 233.574219 148.855469 229.558594 143.992188 229.199219 " fill-opacity="1" fill-rule="nonzero"/><path fill="#9f7944" d="M 156.773438 219.019531 C 152.125 219.632812 147.335938 223.425781 147.335938 223.425781 C 147.335938 223.425781 149.691406 227.414062 154.515625 227.101562 C 159.335938 226.789062 164.476562 221.707031 164.476562 221.707031 C 164.476562 221.707031 161.425781 218.40625 156.773438 219.019531 " fill-opacity="1" fill-rule="nonzero"/><path fill="#9f7944" d="M 167.273438 206.3125 C 163.015625 207.832031 159.277344 212.363281 159.277344 212.363281 C 159.277344 212.363281 162.308594 215.628906 166.777344 214.347656 C 171.25 213.058594 175.0625 207.242188 175.0625 207.242188 C 175.0625 207.242188 171.53125 204.792969 167.273438 206.3125 " fill-opacity="1" fill-rule="nonzero"/><path fill="#9f7944" d="M 175.007812 191.550781 C 171.3125 193.863281 168.714844 198.882812 168.714844 198.882812 C 168.714844 198.882812 172.21875 201.292969 176.152344 199.140625 C 180.089844 196.988281 182.503906 190.769531 182.503906 190.769531 C 182.503906 190.769531 178.707031 189.238281 175.007812 191.550781 " fill-opacity="1" fill-rule="nonzero"/><path fill="#9f7944" d="M 179.550781 175.328125 C 176.5625 178.28125 175.148438 183.519531 175.148438 183.519531 C 175.148438 183.519531 178.90625 185 182.144531 182.132812 C 185.378906 179.269531 186.375 172.976562 186.375 172.976562 C 186.375 172.976562 182.535156 172.375 179.550781 175.328125 " fill-opacity="1" fill-rule="nonzero"/><path fill="#9f7944" d="M 180.570312 158.3125 C 178.410156 161.71875 178.164062 166.914062 178.164062 166.914062 C 178.164062 166.914062 181.949219 167.449219 184.355469 164.0625 C 186.757812 160.679688 186.394531 154.617188 186.394531 154.617188 C 186.394531 154.617188 182.730469 154.90625 180.570312 158.3125 " fill-opacity="1" fill-rule="nonzero"/><path fill="#9f7944" d="M 182.535156 145.757812 C 184.027344 142.070312 182.429688 136.503906 182.429688 136.503906 C 182.429688 136.503906 179.136719 137.574219 177.867188 141.234375 C 176.597656 144.890625 177.464844 149.804688 177.464844 149.804688 C 177.464844 149.804688 181.046875 149.453125 182.535156 145.757812 " fill-opacity="1" fill-rule="nonzero"/><g clip-path="url(#a707e0eefa)"><path fill="#9f7944" d="M 159.941406 211.429688 C 166.453125 201.949219 171.148438 192.636719 174.03125 183.140625 C 174.242188 183.226562 174.371094 183.269531 174.371094 183.269531 C 174.371094 183.269531 174.828125 181.722656 174.984375 179.734375 C 176.074219 175.476562 176.8125 171.175781 177.183594 166.796875 C 177.515625 166.859375 177.722656 166.875 177.722656 166.875 C 177.722656 166.875 177.871094 164.824219 177.425781 162.53125 C 177.558594 158.394531 177.371094 154.175781 176.867188 149.855469 C 177.195312 149.84375 177.390625 149.8125 177.390625 149.8125 C 177.390625 149.8125 177.128906 148.089844 176.367188 146.1875 C 175.988281 143.765625 175.515625 141.3125 174.949219 138.820312 C 175.011719 138.871094 175.054688 138.90625 175.054688 138.90625 C 175.054688 138.90625 176.480469 134.570312 174.71875 130.308594 C 172.960938 126.054688 168.921875 124.015625 168.921875 124.015625 C 168.921875 124.015625 168.4375 128.402344 170.070312 132.378906 C 171.519531 135.914062 174.320312 138.3125 174.929688 138.804688 C 175.417969 141.117188 175.835938 143.417969 176.167969 145.710938 C 175.625 144.476562 174.871094 143.21875 173.828125 142.34375 C 171.039062 139.984375 167.664062 141.21875 167.664062 141.21875 C 167.664062 141.21875 168.773438 145.59375 171.371094 147.976562 C 173.25 149.703125 175.558594 149.890625 176.695312 149.863281 C 177.101562 153.773438 177.265625 157.652344 177.179688 161.492188 C 176.882812 160.421875 176.4375 159.359375 175.765625 158.488281 C 173.417969 155.460938 169.625 155.941406 169.625 155.941406 C 169.625 155.941406 169.777344 160.570312 171.917969 163.578125 C 173.421875 165.703125 175.6875 166.46875 176.898438 166.738281 C 176.5625 170.667969 175.945312 174.546875 175.035156 178.378906 C 175.027344 177.003906 174.824219 175.542969 174.21875 174.292969 C 172.464844 170.675781 168.445312 170.308594 168.445312 170.308594 C 168.445312 170.308594 167.59375 174.992188 169.132812 178.539062 C 170.289062 181.195312 172.664062 182.527344 173.773438 183.027344 C 172.5625 186.996094 171.011719 190.90625 169.113281 194.75 C 169.613281 193.050781 169.945312 190.980469 169.476562 189.121094 C 168.453125 185.042969 164.394531 183.773438 164.394531 183.773438 C 164.394531 183.773438 162.550781 188.308594 163.367188 192.246094 C 164.042969 195.476562 166.511719 197.457031 167.386719 198.066406 C 165.039062 202.3125 162.246094 206.476562 158.976562 210.546875 C 155.28125 214.382812 151.542969 217.710938 147.570312 220.738281 C 149.101562 219.300781 151.488281 216.644531 151.964844 213.640625 C 152.683594 209.160156 149.160156 206.136719 149.160156 206.136719 C 149.160156 206.136719 145.480469 209.777344 144.613281 214.007812 C 143.820312 217.867188 145.847656 221.222656 146.207031 221.773438 C 143.546875 223.722656 140.777344 225.539062 137.828125 227.28125 C 134.035156 229.300781 130.203125 230.917969 126.472656 232.175781 C 122.683594 233.46875 119.050781 234.636719 115.660156 235.660156 C 108.867188 237.699219 102.953125 239.191406 98.851562 240.566406 C 96.792969 241.238281 95.21875 241.898438 94.195312 242.40625 C 93.6875 242.664062 93.300781 242.867188 93.058594 243.019531 C 92.816406 243.171875 92.683594 243.25 92.683594 243.25 C 93.890625 243.910156 94.5 244.238281 95.742188 244.871094 C 95.742188 244.871094 95.828125 244.8125 96 244.695312 C 96.164062 244.578125 96.441406 244.414062 96.8125 244.199219 C 97.578125 243.785156 98.820312 243.195312 100.621094 242.554688 C 104.1875 241.238281 109.851562 239.6875 116.488281 237.589844 C 119.804688 236.535156 123.355469 235.347656 127.09375 234.011719 C 130.894531 232.675781 134.785156 230.964844 138.625 228.847656 C 146.652344 223.949219 153.367188 218.488281 159.941406 211.429688 " fill-opacity="1" fill-rule="nonzero"/></g><path fill="#9f7944" d="M 88.890625 222.511719 C 87.234375 218.128906 90.207031 214.359375 90.207031 214.359375 C 90.207031 214.359375 94.679688 217.292969 96.445312 221.371094 C 98.214844 225.453125 96.429688 229.621094 96.429688 229.621094 C 96.429688 229.621094 90.550781 226.898438 88.890625 222.511719 " fill-opacity="1" fill-rule="nonzero"/><path fill="#9f7944" d="M 67.078125 202.386719 C 67.269531 198.011719 71.152344 195.84375 71.152344 195.84375 C 71.152344 195.84375 73.957031 200.023438 73.949219 204.203125 C 73.945312 208.378906 70.835938 211.296875 70.835938 211.296875 C 70.835938 211.296875 66.886719 206.765625 67.078125 202.386719 " fill-opacity="1" fill-rule="nonzero"/><path fill="#9f7944" d="M 85 229.199219 C 89.863281 228.839844 95.570312 231.667969 95.570312 231.667969 C 95.570312 231.667969 94.042969 236.1875 89.058594 236.910156 C 84.078125 237.628906 77.75 233.574219 77.75 233.574219 C 77.75 233.574219 80.140625 229.558594 85 229.199219 " fill-opacity="1" fill-rule="nonzero"/><path fill="#9f7944" d="M 72.21875 219.019531 C 76.867188 219.632812 81.65625 223.425781 81.65625 223.425781 C 81.65625 223.425781 79.300781 227.414062 74.476562 227.101562 C 69.65625 226.789062 64.515625 221.707031 64.515625 221.707031 C 64.515625 221.707031 67.566406 218.402344 72.21875 219.019531 " fill-opacity="1" fill-rule="nonzero"/><path fill="#9f7944" d="M 61.71875 206.3125 C 65.980469 207.832031 69.714844 212.363281 69.714844 212.363281 C 69.714844 212.363281 66.6875 215.628906 62.214844 214.34375 C 57.742188 213.058594 53.925781 207.242188 53.925781 207.242188 C 53.925781 207.242188 57.460938 204.792969 61.71875 206.3125 " fill-opacity="1" fill-rule="nonzero"/><path fill="#9f7944" d="M 53.984375 191.550781 C 57.679688 193.863281 60.277344 198.882812 60.277344 198.882812 C 60.277344 198.882812 56.773438 201.292969 52.839844 199.140625 C 48.902344 196.988281 46.488281 190.769531 46.488281 190.769531 C 46.488281 190.769531 50.289062 189.242188 53.984375 191.550781 " fill-opacity="1" fill-rule="nonzero"/><g clip-path="url(#b871c7f041)"><path fill="#9f7944" d="M 49.441406 175.328125 C 52.429688 178.28125 53.84375 183.519531 53.84375 183.519531 C 53.84375 183.519531 50.085938 184.996094 46.847656 182.132812 C 43.613281 179.265625 42.617188 172.972656 42.617188 172.972656 C 42.617188 172.972656 46.457031 172.375 49.441406 175.328125 " fill-opacity="1" fill-rule="nonzero"/></g><g clip-path="url(#2077254fcb)"><path fill="#9f7944" d="M 48.421875 158.3125 C 50.585938 161.71875 50.824219 166.914062 50.824219 166.914062 C 50.824219 166.914062 47.039062 167.449219 44.636719 164.0625 C 42.234375 160.679688 42.59375 154.613281 42.59375 154.613281 C 42.59375 154.613281 46.261719 154.90625 48.421875 158.3125 " fill-opacity="1" fill-rule="nonzero"/></g><path fill="#9f7944" d="M 46.457031 145.757812 C 44.964844 142.070312 46.558594 136.503906 46.558594 136.503906 C 46.558594 136.503906 49.855469 137.574219 51.125 141.234375 C 52.394531 144.890625 51.523438 149.804688 51.523438 149.804688 C 51.523438 149.804688 47.945312 149.453125 46.457031 145.757812 " fill-opacity="1" fill-rule="nonzero"/><g clip-path="url(#4049531d2b)"><path fill="#9f7944" d="M 69.050781 211.429688 C 62.539062 201.949219 57.84375 192.636719 54.960938 183.140625 C 54.746094 183.226562 54.621094 183.265625 54.621094 183.265625 C 54.621094 183.265625 54.164062 181.722656 54.007812 179.734375 C 52.917969 175.476562 52.175781 171.175781 51.804688 166.796875 C 51.472656 166.859375 51.269531 166.875 51.269531 166.875 C 51.269531 166.875 51.121094 164.820312 51.566406 162.53125 C 51.433594 158.394531 51.621094 154.175781 52.121094 149.855469 C 51.796875 149.839844 51.597656 149.8125 51.597656 149.8125 C 51.597656 149.8125 51.863281 148.089844 52.625 146.1875 C 53 143.765625 53.472656 141.3125 54.042969 138.820312 C 53.980469 138.871094 53.9375 138.902344 53.9375 138.902344 C 53.9375 138.902344 52.515625 134.570312 54.269531 130.308594 C 56.03125 126.054688 60.070312 124.015625 60.070312 124.015625 C 60.070312 124.015625 60.554688 128.402344 58.921875 132.378906 C 57.472656 135.910156 54.671875 138.308594 54.0625 138.804688 C 53.570312 141.117188 53.15625 143.417969 52.820312 145.710938 C 53.367188 144.476562 54.125 143.21875 55.164062 142.34375 C 57.953125 139.984375 61.328125 141.21875 61.328125 141.21875 C 61.328125 141.21875 60.21875 145.59375 57.621094 147.976562 C 55.738281 149.703125 53.433594 149.890625 52.296875 149.863281 C 51.890625 153.773438 51.722656 157.652344 51.8125 161.492188 C 52.109375 160.421875 52.550781 159.355469 53.226562 158.488281 C 55.574219 155.460938 59.367188 155.941406 59.367188 155.941406 C 59.367188 155.941406 59.214844 160.566406 57.074219 163.578125 C 55.566406 165.703125 53.300781 166.46875 52.097656 166.738281 C 52.429688 170.664062 53.046875 174.546875 53.957031 178.378906 C 53.96875 177.003906 54.167969 175.542969 54.773438 174.292969 C 56.527344 170.675781 60.546875 170.308594 60.546875 170.308594 C 60.546875 170.308594 61.398438 174.992188 59.859375 178.535156 C 58.703125 181.195312 56.332031 182.527344 55.21875 183.027344 C 56.433594 186.992188 57.980469 190.90625 59.878906 194.75 C 59.378906 193.050781 59.046875 190.980469 59.511719 189.121094 C 60.539062 185.042969 64.597656 183.773438 64.597656 183.773438 C 64.597656 183.773438 66.441406 188.308594 65.621094 192.246094 C 64.953125 195.476562 62.480469 197.453125 61.605469 198.066406 C 63.953125 202.3125 66.746094 206.476562 70.019531 210.546875 C 73.710938 214.378906 77.449219 217.710938 81.421875 220.734375 C 79.894531 219.300781 77.507812 216.644531 77.027344 213.640625 C 76.308594 209.160156 79.832031 206.136719 79.832031 206.136719 C 79.832031 206.136719 83.511719 209.777344 84.378906 214.007812 C 85.171875 217.867188 83.144531 221.222656 82.785156 221.773438 C 85.445312 223.71875 88.214844 225.539062 91.160156 227.28125 C 94.957031 229.300781 98.789062 230.917969 102.519531 232.175781 C 106.308594 233.46875 109.941406 234.636719 113.335938 235.660156 C 120.125 237.699219 126.039062 239.191406 130.144531 240.566406 C 132.195312 241.238281 133.773438 241.898438 134.796875 242.40625 C 135.304688 242.664062 135.691406 242.867188 135.933594 243.019531 C 136.179688 243.171875 136.308594 243.25 136.308594 243.25 C 135.101562 243.910156 134.488281 244.238281 133.25 244.871094 C 133.25 244.871094 133.164062 244.8125 132.992188 244.695312 C 132.828125 244.578125 132.550781 244.414062 132.179688 244.199219 C 131.417969 243.785156 130.171875 243.195312 128.371094 242.554688 C 124.804688 241.238281 119.140625 239.6875 112.503906 237.589844 C 109.1875 236.535156 105.636719 235.347656 101.898438 234.011719 C 98.097656 232.675781 94.207031 230.964844 90.363281 228.847656 C 82.339844 223.949219 75.625 218.484375 69.050781 211.429688 " fill-opacity="1" fill-rule="nonzero"/></g><g clip-path="url(#5bd90a8715)"><path fill="#9f7944" d="M 114.492188 26.34375 L 116.925781 31.277344 L 122.371094 32.066406 L 118.429688 35.90625 L 119.359375 41.328125 L 114.492188 38.769531 L 109.621094 41.328125 L 110.550781 35.90625 L 106.613281 32.066406 L 112.058594 31.277344 Z M 114.492188 26.34375 " fill-opacity="1" fill-rule="nonzero"/></g><g clip-path="url(#4d694b920d)"><path fill="#9f7944" d="M 131.140625 32.890625 L 132.453125 36.945312 L 136.535156 38.160156 L 133.085938 40.660156 L 133.1875 44.917969 L 129.746094 42.410156 L 125.730469 43.824219 L 127.050781 39.777344 L 124.464844 36.394531 L 128.722656 36.398438 Z M 131.140625 32.890625 " fill-opacity="1" fill-rule="nonzero"/></g><g clip-path="url(#e9f4fed3b8)"><path fill="#9f7944" d="M 97.84375 32.890625 L 96.53125 36.945312 L 92.449219 38.160156 L 95.898438 40.660156 L 95.792969 44.917969 L 99.238281 42.410156 L 103.253906 43.824219 L 101.933594 39.777344 L 104.519531 36.394531 L 100.261719 36.398438 Z M 97.84375 32.890625 " fill-opacity="1" fill-rule="nonzero"/></g><g clip-path="url(#78cffc97f5)"><path fill="#13325b" d="M 150.253906 143.46875 L 150.253906 140.570312 C 150.253906 140.296875 150.042969 140.085938 149.769531 140.085938 L 147.171875 140.085938 L 147.171875 137.929688 C 147.171875 137.65625 146.960938 137.445312 146.6875 137.445312 L 144.199219 137.445312 L 144.199219 135.441406 C 144.199219 135.304688 144.136719 135.167969 144.03125 135.078125 C 143.925781 134.984375 143.789062 134.941406 143.636719 134.953125 C 130.8125 136.367188 117.777344 143.757812 116.410156 144.546875 L 112.585938 144.546875 C 111.207031 143.757812 98.171875 136.367188 85.347656 134.953125 C 85.210938 134.941406 85.074219 134.984375 84.96875 135.078125 C 84.863281 135.167969 84.800781 135.304688 84.800781 135.441406 L 84.800781 137.445312 L 82.328125 137.445312 C 82.054688 137.445312 81.839844 137.65625 81.839844 137.929688 L 81.839844 140.070312 L 79.246094 140.070312 C 78.972656 140.070312 78.761719 140.28125 78.761719 140.554688 L 78.761719 143.46875 L 77.046875 143.46875 C 76.773438 143.46875 76.558594 143.679688 76.558594 143.953125 L 76.558594 187.128906 C 76.558594 187.128906 93.191406 187.570312 112.449219 189.664062 L 116.546875 189.664062 C 135.820312 187.585938 152.4375 187.128906 152.4375 187.128906 L 152.4375 143.953125 C 152.4375 143.679688 152.226562 143.46875 151.953125 143.46875 Z M 149.265625 141.054688 L 149.265625 183.214844 C 149.265625 183.214844 149.265625 183.214844 149.265625 183.230469 C 146.566406 183.289062 133.121094 183.714844 120.886719 186.476562 C 126.625 184.457031 137.277344 181.164062 146.6875 180.800781 C 146.945312 180.785156 147.15625 180.574219 147.15625 180.316406 L 147.15625 141.054688 Z M 146.1875 138.414062 L 146.1875 179.84375 C 138.25 180.238281 129.523438 182.605469 123.558594 184.550781 C 128.765625 182.167969 136.292969 179.296875 143.742188 178.480469 C 143.984375 178.449219 144.183594 178.234375 144.183594 177.992188 L 144.183594 138.414062 Z M 117.035156 145.320312 C 118.871094 144.257812 131.070312 137.488281 143.210938 135.988281 L 143.210938 177.554688 C 131.648438 178.949219 120.023438 185.082031 117.035156 186.75 Z M 112.9375 145.515625 L 116.046875 145.515625 L 116.046875 187.097656 L 112.9375 187.097656 Z M 85.789062 135.988281 C 97.914062 137.472656 110.128906 144.257812 111.964844 145.320312 L 111.964844 186.75 C 108.976562 185.082031 97.351562 178.949219 85.789062 177.554688 Z M 82.8125 138.414062 L 84.816406 138.414062 L 84.816406 177.992188 C 84.816406 178.234375 85 178.449219 85.257812 178.480469 C 92.707031 179.296875 100.234375 182.167969 105.441406 184.550781 C 99.492188 182.621094 90.75 180.238281 82.8125 179.84375 Z M 79.730469 141.054688 L 81.839844 141.054688 L 81.839844 180.316406 C 81.839844 180.574219 82.054688 180.785156 82.3125 180.800781 C 91.722656 181.164062 102.390625 184.457031 108.109375 186.476562 C 95.863281 183.699219 82.417969 183.273438 79.730469 183.230469 C 79.730469 183.230469 79.730469 183.230469 79.730469 183.214844 Z M 79.730469 141.054688 " fill-opacity="1" fill-rule="nonzero"/></g><path fill="#13325b" d="M 140.691406 142.238281 C 131.449219 143.96875 122.617188 148.386719 119.234375 150.207031 C 118.992188 150.328125 118.914062 150.632812 119.039062 150.859375 C 119.128906 151.027344 119.296875 151.117188 119.460938 151.117188 C 119.539062 151.117188 119.613281 151.101562 119.691406 151.054688 C 123.027344 149.25 131.753906 144.878906 140.859375 143.179688 C 141.117188 143.132812 141.300781 142.875 141.253906 142.617188 C 141.207031 142.359375 140.949219 142.179688 140.691406 142.238281 Z M 140.691406 142.238281 " fill-opacity="1" fill-rule="nonzero"/><path fill="#13325b" d="M 140.691406 146.472656 C 131.449219 148.203125 122.617188 152.621094 119.234375 154.441406 C 118.992188 154.5625 118.914062 154.867188 119.039062 155.09375 C 119.128906 155.261719 119.296875 155.351562 119.460938 155.351562 C 119.539062 155.351562 119.613281 155.335938 119.691406 155.289062 C 123.027344 153.484375 131.753906 149.113281 140.859375 147.414062 C 141.117188 147.367188 141.300781 147.109375 141.253906 146.851562 C 141.207031 146.59375 140.949219 146.425781 140.691406 146.472656 Z M 140.691406 146.472656 " fill-opacity="1" fill-rule="nonzero"/><path fill="#13325b" d="M 140.691406 150.722656 C 131.449219 152.453125 122.617188 156.867188 119.234375 158.691406 C 118.992188 158.8125 118.914062 159.113281 119.039062 159.34375 C 119.128906 159.507812 119.296875 159.601562 119.460938 159.601562 C 119.539062 159.601562 119.613281 159.585938 119.691406 159.539062 C 123.027344 157.734375 131.753906 153.363281 140.859375 151.664062 C 141.117188 151.617188 141.300781 151.359375 141.253906 151.101562 C 141.207031 150.84375 140.949219 150.660156 140.691406 150.722656 Z M 140.691406 150.722656 " fill-opacity="1" fill-rule="nonzero"/><path fill="#13325b" d="M 140.691406 154.957031 C 131.449219 156.6875 122.617188 161.101562 119.234375 162.921875 C 118.992188 163.046875 118.914062 163.347656 119.039062 163.578125 C 119.128906 163.742188 119.296875 163.835938 119.460938 163.835938 C 119.539062 163.835938 119.613281 163.820312 119.691406 163.773438 C 123.027344 161.96875 131.753906 157.597656 140.859375 155.898438 C 141.117188 155.851562 141.300781 155.59375 141.253906 155.335938 C 141.207031 155.078125 140.949219 154.910156 140.691406 154.957031 Z M 140.691406 154.957031 " fill-opacity="1" fill-rule="nonzero"/><path fill="#13325b" d="M 140.691406 159.191406 C 131.449219 160.921875 122.617188 165.335938 119.234375 167.15625 C 118.992188 167.277344 118.914062 167.582031 119.039062 167.808594 C 119.128906 167.976562 119.296875 168.066406 119.460938 168.066406 C 119.539062 168.066406 119.613281 168.054688 119.691406 168.007812 C 123.027344 166.203125 131.753906 161.832031 140.859375 160.132812 C 141.117188 160.085938 141.300781 159.828125 141.253906 159.570312 C 141.207031 159.328125 140.949219 159.144531 140.691406 159.191406 Z M 140.691406 159.191406 " fill-opacity="1" fill-rule="nonzero"/><path fill="#13325b" d="M 140.691406 163.441406 C 131.449219 165.167969 122.617188 169.585938 119.234375 171.40625 C 118.992188 171.527344 118.914062 171.832031 119.039062 172.058594 C 119.128906 172.226562 119.296875 172.316406 119.460938 172.316406 C 119.539062 172.316406 119.613281 172.300781 119.691406 172.257812 C 123.027344 170.449219 131.753906 166.082031 140.859375 164.378906 C 141.117188 164.335938 141.300781 164.078125 141.253906 163.820312 C 141.207031 163.5625 140.949219 163.378906 140.691406 163.441406 Z M 140.691406 163.441406 " fill-opacity="1" fill-rule="nonzero"/><path fill="#13325b" d="M 140.691406 167.671875 C 131.449219 169.402344 122.617188 173.820312 119.234375 175.640625 C 118.992188 175.761719 118.914062 176.066406 119.039062 176.292969 C 119.128906 176.460938 119.296875 176.550781 119.460938 176.550781 C 119.539062 176.550781 119.613281 176.535156 119.691406 176.492188 C 123.027344 174.683594 131.753906 170.3125 140.859375 168.613281 C 141.117188 168.570312 141.300781 168.3125 141.253906 168.054688 C 141.207031 167.796875 140.949219 167.628906 140.691406 167.671875 Z M 140.691406 167.671875 " fill-opacity="1" fill-rule="nonzero"/><path fill="#13325b" d="M 140.691406 171.921875 C 131.449219 173.652344 122.617188 178.070312 119.234375 179.890625 C 118.992188 180.011719 118.914062 180.316406 119.039062 180.542969 C 119.128906 180.710938 119.296875 180.800781 119.460938 180.800781 C 119.539062 180.800781 119.613281 180.785156 119.691406 180.738281 C 123.027344 178.933594 131.753906 174.5625 140.859375 172.863281 C 141.117188 172.816406 141.300781 172.558594 141.253906 172.300781 C 141.207031 172.042969 140.949219 171.863281 140.691406 171.921875 Z M 140.691406 171.921875 " fill-opacity="1" fill-rule="nonzero"/><path fill="#13325b" d="M 109.765625 150.207031 C 106.394531 148.386719 97.546875 143.953125 88.304688 142.238281 C 88.046875 142.195312 87.789062 142.359375 87.746094 142.632812 C 87.699219 142.890625 87.867188 143.148438 88.140625 143.195312 C 97.246094 144.894531 105.972656 149.265625 109.308594 151.070312 C 109.386719 151.117188 109.460938 151.132812 109.539062 151.132812 C 109.703125 151.132812 109.871094 151.042969 109.960938 150.875 C 110.082031 150.632812 110.007812 150.328125 109.765625 150.207031 Z M 109.765625 150.207031 " fill-opacity="1" fill-rule="nonzero"/><path fill="#13325b" d="M 109.765625 154.441406 C 106.394531 152.621094 97.546875 148.1875 88.304688 146.472656 C 88.046875 146.425781 87.789062 146.59375 87.746094 146.867188 C 87.699219 147.125 87.867188 147.382812 88.140625 147.429688 C 97.246094 149.128906 105.972656 153.5 109.308594 155.304688 C 109.386719 155.351562 109.460938 155.367188 109.539062 155.367188 C 109.703125 155.367188 109.871094 155.273438 109.960938 155.109375 C 110.082031 154.867188 110.007812 154.578125 109.765625 154.441406 Z M 109.765625 154.441406 " fill-opacity="1" fill-rule="nonzero"/><path fill="#13325b" d="M 109.765625 158.691406 C 106.394531 156.867188 97.546875 152.4375 88.304688 150.722656 C 88.046875 150.675781 87.789062 150.84375 87.746094 151.117188 C 87.699219 151.375 87.867188 151.632812 88.140625 151.679688 C 97.246094 153.378906 105.972656 157.75 109.308594 159.554688 C 109.386719 159.601562 109.460938 159.617188 109.539062 159.617188 C 109.703125 159.617188 109.871094 159.523438 109.960938 159.355469 C 110.082031 159.113281 110.007812 158.8125 109.765625 158.691406 Z M 109.765625 158.691406 " fill-opacity="1" fill-rule="nonzero"/><path fill="#13325b" d="M 109.765625 162.921875 C 106.394531 161.101562 97.546875 156.671875 88.304688 154.957031 C 88.046875 154.910156 87.789062 155.078125 87.746094 155.351562 C 87.699219 155.609375 87.867188 155.867188 88.140625 155.914062 C 97.246094 157.613281 105.972656 161.984375 109.308594 163.789062 C 109.386719 163.835938 109.460938 163.847656 109.539062 163.847656 C 109.703125 163.847656 109.871094 163.757812 109.960938 163.589844 C 110.082031 163.347656 110.007812 163.058594 109.765625 162.921875 Z M 109.765625 162.921875 " fill-opacity="1" fill-rule="nonzero"/><path fill="#13325b" d="M 109.765625 167.171875 C 106.394531 165.351562 97.546875 160.921875 88.304688 159.207031 C 88.046875 159.160156 87.789062 159.328125 87.746094 159.601562 C 87.699219 159.859375 87.867188 160.117188 88.140625 160.160156 C 97.246094 161.863281 105.972656 166.230469 109.308594 168.039062 C 109.386719 168.082031 109.460938 168.097656 109.539062 168.097656 C 109.703125 168.097656 109.871094 168.007812 109.960938 167.839844 C 110.082031 167.597656 110.007812 167.292969 109.765625 167.171875 Z M 109.765625 167.171875 " fill-opacity="1" fill-rule="nonzero"/><path fill="#13325b" d="M 109.765625 171.40625 C 106.394531 169.585938 97.546875 165.15625 88.304688 163.441406 C 88.046875 163.394531 87.789062 163.5625 87.746094 163.835938 C 87.699219 164.09375 87.867188 164.351562 88.140625 164.394531 C 97.246094 166.09375 105.972656 170.464844 109.308594 172.273438 C 109.386719 172.316406 109.460938 172.332031 109.539062 172.332031 C 109.703125 172.332031 109.871094 172.242188 109.960938 172.074219 C 110.082031 171.832031 110.007812 171.542969 109.765625 171.40625 Z M 109.765625 171.40625 " fill-opacity="1" fill-rule="nonzero"/><path fill="#13325b" d="M 109.765625 175.65625 C 106.394531 173.835938 97.546875 169.402344 88.304688 167.6875 C 88.046875 167.644531 87.789062 167.808594 87.746094 168.082031 C 87.699219 168.339844 87.867188 168.597656 88.140625 168.644531 C 97.246094 170.34375 105.972656 174.714844 109.308594 176.519531 C 109.386719 176.566406 109.460938 176.582031 109.539062 176.582031 C 109.703125 176.582031 109.871094 176.492188 109.960938 176.324219 C 110.082031 176.066406 110.007812 175.777344 109.765625 175.65625 Z M 109.765625 175.65625 " fill-opacity="1" fill-rule="nonzero"/><path fill="#13325b" d="M 109.765625 179.890625 C 106.394531 178.070312 97.546875 173.636719 88.304688 171.921875 C 88.046875 171.878906 87.789062 172.042969 87.746094 172.316406 C 87.699219 172.574219 87.867188 172.832031 88.140625 172.878906 C 97.246094 174.578125 105.972656 178.949219 109.308594 180.753906 C 109.386719 180.800781 109.460938 180.816406 109.539062 180.816406 C 109.703125 180.816406 109.871094 180.726562 109.960938 180.558594 C 110.082031 180.316406 110.007812 180.011719 109.765625 179.890625 Z M 109.765625 179.890625 " fill-opacity="1" fill-rule="nonzero"/><g fill="#9f7944" fill-opacity="1"><g transform="translate(51.69133, 77.783354)"><g><path d="M 20.453125 -14.109375 L 20.265625 -14.109375 C 19.929688 -14.109375 19.585938 -14.003906 19.234375 -13.796875 C 18.890625 -13.585938 18.640625 -13.296875 18.484375 -12.921875 L 15.0625 -1.90625 C 14.820312 -1.15625 14.703125 -0.457031 14.703125 0.1875 C 14.703125 0.25 14.703125 0.3125 14.703125 0.375 L 14.5 0.375 L 10.046875 -9.5 L 6.828125 -1.90625 C 6.503906 -1.113281 6.335938 -0.351562 6.328125 0.375 L 6.125 0.375 L 1.234375 -12.921875 C 1.054688 -13.316406 0.804688 -13.613281 0.484375 -13.8125 C 0.160156 -14.007812 -0.171875 -14.109375 -0.515625 -14.109375 L -0.671875 -14.109375 L -0.671875 -14.3125 L 5.546875 -14.3125 L 5.546875 -14.109375 L 5.375 -14.109375 C 5.082031 -14.109375 4.863281 -14.015625 4.71875 -13.828125 C 4.582031 -13.640625 4.515625 -13.460938 4.515625 -13.296875 C 4.515625 -13.140625 4.539062 -12.984375 4.59375 -12.828125 L 7.109375 -5.71875 L 10.8125 -14.640625 L 10.984375 -14.609375 L 15.0625 -5.640625 L 17.09375 -12.828125 C 17.132812 -12.984375 17.15625 -13.140625 17.15625 -13.296875 C 17.15625 -13.460938 17.09375 -13.640625 16.96875 -13.828125 C 16.84375 -14.015625 16.628906 -14.109375 16.328125 -14.109375 L 16.140625 -14.109375 L 16.140625 -14.3125 L 20.453125 -14.3125 Z M 20.453125 -14.109375 "/></g></g></g><g fill="#9f7944" fill-opacity="1"><g transform="translate(72.957925, 77.783354)"><g><path d="M 15.078125 -0.203125 L 15.265625 -0.203125 L 15.265625 0 L 8.75 0 L 8.75 -0.203125 L 8.921875 -0.203125 C 9.222656 -0.203125 9.445312 -0.289062 9.59375 -0.46875 C 9.738281 -0.65625 9.8125 -0.832031 9.8125 -1 C 9.8125 -1.164062 9.773438 -1.328125 9.703125 -1.484375 L 8.703125 -4 L 3.921875 -4 L 2.859375 -1.484375 C 2.785156 -1.304688 2.75 -1.140625 2.75 -0.984375 C 2.75 -0.828125 2.820312 -0.65625 2.96875 -0.46875 C 3.125 -0.289062 3.351562 -0.203125 3.65625 -0.203125 L 3.8125 -0.203125 L 3.8125 0 L -0.5625 0 L -0.5625 -0.203125 L -0.375 -0.203125 C -0.0625 -0.203125 0.25 -0.296875 0.5625 -0.484375 C 0.875 -0.679688 1.132812 -0.96875 1.34375 -1.34375 L 6.0625 -12.03125 C 6.707031 -13.382812 7.050781 -14.28125 7.09375 -14.71875 L 7.265625 -14.71875 L 13.34375 -1.390625 C 13.539062 -0.992188 13.796875 -0.695312 14.109375 -0.5 C 14.429688 -0.300781 14.753906 -0.203125 15.078125 -0.203125 Z M 4.265625 -4.859375 L 8.359375 -4.859375 L 6.375 -9.890625 Z M 4.265625 -4.859375 "/></g></g></g><g fill="#9f7944" fill-opacity="1"><g transform="translate(89.015334, 77.783354)"><g><path d="M 6.5 -13.40625 L 5.625 -13.40625 C 5.59375 -13.40625 5.570312 -13.40625 5.5625 -13.40625 L 5.5625 -1.484375 C 5.570312 -1.128906 5.703125 -0.828125 5.953125 -0.578125 C 6.203125 -0.328125 6.503906 -0.203125 6.859375 -0.203125 L 7.125 -0.203125 L 7.125 0 L 0.921875 0 L 0.921875 -0.203125 L 1.1875 -0.203125 C 1.675781 -0.203125 2.050781 -0.414062 2.3125 -0.84375 C 2.414062 -1.03125 2.476562 -1.238281 2.5 -1.46875 L 2.5 -12.8125 C 2.476562 -13.164062 2.34375 -13.46875 2.09375 -13.71875 C 1.84375 -13.976562 1.539062 -14.109375 1.1875 -14.109375 L 0.921875 -14.109375 L 0.921875 -14.3125 L 7.9375 -14.3125 C 9.25 -14.3125 10.363281 -14.023438 11.28125 -13.453125 C 11.738281 -13.160156 12.101562 -12.757812 12.375 -12.25 C 12.65625 -11.738281 12.796875 -11.070312 12.796875 -10.25 C 12.796875 -9.425781 12.507812 -8.628906 11.9375 -7.859375 C 11.363281 -7.097656 10.53125 -6.664062 9.4375 -6.5625 C 10.226562 -6.300781 10.925781 -5.703125 11.53125 -4.765625 C 13 -2.398438 14.085938 -0.992188 14.796875 -0.546875 C 15.148438 -0.328125 15.59375 -0.210938 16.125 -0.203125 L 16.125 0 L 14.125 0 C 12.9375 0 11.953125 -0.15625 11.171875 -0.46875 C 10.390625 -0.78125 9.769531 -1.332031 9.3125 -2.125 C 9.0625 -2.570312 8.5 -3.738281 7.625 -5.625 C 7.238281 -6.445312 6.773438 -6.898438 6.234375 -6.984375 L 6.234375 -7.1875 L 6.859375 -7.1875 C 7.472656 -7.1875 8.015625 -7.367188 8.484375 -7.734375 C 8.960938 -8.109375 9.28125 -8.710938 9.4375 -9.546875 C 9.5 -9.828125 9.53125 -10.050781 9.53125 -10.21875 C 9.53125 -11.332031 9.300781 -12.140625 8.84375 -12.640625 C 8.394531 -13.140625 7.816406 -13.394531 7.109375 -13.40625 C 6.972656 -13.40625 6.769531 -13.40625 6.5 -13.40625 Z M 6.5 -13.40625 "/></g></g></g><g fill="#9f7944" fill-opacity="1"><g transform="translate(105.706022, 77.783354)"><g><path d="M 8.28125 -14.3125 C 10.6875 -14.3125 12.59375 -13.671875 14 -12.390625 C 15.40625 -11.109375 16.109375 -9.363281 16.109375 -7.15625 C 16.109375 -4.945312 15.40625 -3.203125 14 -1.921875 C 12.59375 -0.640625 10.6875 0 8.28125 0 L 0.859375 0 L 0.859375 -0.203125 L 1.125 -0.203125 C 1.476562 -0.203125 1.78125 -0.328125 2.03125 -0.578125 C 2.28125 -0.828125 2.414062 -1.128906 2.4375 -1.484375 L 2.4375 -12.9375 C 2.4375 -13.257812 2.300781 -13.535156 2.03125 -13.765625 C 1.769531 -13.992188 1.46875 -14.109375 1.125 -14.109375 L 0.859375 -14.109375 L 0.859375 -14.3125 Z M 8.015625 -0.875 C 8.992188 -0.875 9.835938 -1.125 10.546875 -1.625 C 11.265625 -2.132812 11.8125 -2.863281 12.1875 -3.8125 C 12.570312 -4.757812 12.765625 -5.789062 12.765625 -6.90625 C 12.765625 -8.019531 12.648438 -8.96875 12.421875 -9.75 C 12.203125 -10.539062 11.890625 -11.207031 11.484375 -11.75 C 10.640625 -12.882812 9.484375 -13.453125 8.015625 -13.453125 L 5.5 -13.453125 L 5.5 -0.875 Z M 8.015625 -0.875 "/></g></g></g><g fill="#9f7944" fill-opacity="1"><g transform="translate(124.051393, 77.783354)"><g><path d="M 1.125 -0.203125 C 1.476562 -0.203125 1.78125 -0.328125 2.03125 -0.578125 C 2.28125 -0.828125 2.414062 -1.128906 2.4375 -1.484375 L 2.4375 -12.828125 C 2.414062 -13.179688 2.28125 -13.484375 2.03125 -13.734375 C 1.78125 -13.984375 1.476562 -14.109375 1.125 -14.109375 L 0.859375 -14.109375 L 0.859375 -14.3125 L 7.078125 -14.3125 L 7.046875 -14.109375 L 6.8125 -14.109375 C 6.457031 -14.109375 6.148438 -13.984375 5.890625 -13.734375 C 5.628906 -13.484375 5.5 -13.179688 5.5 -12.828125 L 5.5 -1.484375 C 5.5 -1.128906 5.628906 -0.828125 5.890625 -0.578125 C 6.148438 -0.328125 6.457031 -0.203125 6.8125 -0.203125 L 7.046875 -0.203125 L 7.078125 0 L 0.859375 0 L 0.859375 -0.203125 Z M 1.125 -0.203125 "/></g></g></g><g fill="#9f7944" fill-opacity="1"><g transform="translate(133.367502, 77.783354)"><g><path d="M 1.125 -0.203125 C 1.476562 -0.203125 1.78125 -0.328125 2.03125 -0.578125 C 2.28125 -0.828125 2.414062 -1.128906 2.4375 -1.484375 L 2.4375 -12.875 C 2.40625 -13.226562 2.300781 -13.488281 2.125 -13.65625 C 1.800781 -13.957031 1.46875 -14.109375 1.125 -14.109375 L 0.859375 -14.109375 L 0.859375 -14.3125 L 8.6875 -14.3125 C 9.351562 -14.3125 9.90625 -14.359375 10.34375 -14.453125 C 10.78125 -14.554688 11.046875 -14.628906 11.140625 -14.671875 L 11.140625 -11.09375 L 10.9375 -11.125 L 10.9375 -11.34375 C 10.9375 -12.1875 10.625 -12.785156 10 -13.140625 C 9.695312 -13.316406 9.34375 -13.410156 8.9375 -13.421875 L 5.5 -13.421875 L 5.5 -7.484375 L 8.203125 -7.484375 C 8.703125 -7.492188 9.113281 -7.664062 9.4375 -8 C 9.769531 -8.332031 9.9375 -8.742188 9.9375 -9.234375 L 9.9375 -9.421875 L 10.140625 -9.421875 L 10.140625 -4.703125 L 9.9375 -4.703125 L 9.9375 -4.859375 C 9.9375 -5.367188 9.773438 -5.785156 9.453125 -6.109375 C 9.128906 -6.429688 8.722656 -6.601562 8.234375 -6.625 L 5.5 -6.625 L 5.5 -0.875 L 8.171875 -0.875 C 9.171875 -0.875 10.003906 -1.160156 10.671875 -1.734375 C 11.347656 -2.304688 11.851562 -3.117188 12.1875 -4.171875 L 12.390625 -4.171875 L 11.4375 0 L 0.859375 0 L 0.859375 -0.203125 Z M 1.125 -0.203125 "/></g></g></g><g fill="#9f7944" fill-opacity="1"><g transform="translate(147.688521, 77.783354)"><g><path d="M 6.5 -13.40625 L 5.625 -13.40625 C 5.59375 -13.40625 5.570312 -13.40625 5.5625 -13.40625 L 5.5625 -1.484375 C 5.570312 -1.128906 5.703125 -0.828125 5.953125 -0.578125 C 6.203125 -0.328125 6.503906 -0.203125 6.859375 -0.203125 L 7.125 -0.203125 L 7.125 0 L 0.921875 0 L 0.921875 -0.203125 L 1.1875 -0.203125 C 1.675781 -0.203125 2.050781 -0.414062 2.3125 -0.84375 C 2.414062 -1.03125 2.476562 -1.238281 2.5 -1.46875 L 2.5 -12.8125 C 2.476562 -13.164062 2.34375 -13.46875 2.09375 -13.71875 C 1.84375 -13.976562 1.539062 -14.109375 1.1875 -14.109375 L 0.921875 -14.109375 L 0.921875 -14.3125 L 7.9375 -14.3125 C 9.25 -14.3125 10.363281 -14.023438 11.28125 -13.453125 C 11.738281 -13.160156 12.101562 -12.757812 12.375 -12.25 C 12.65625 -11.738281 12.796875 -11.070312 12.796875 -10.25 C 12.796875 -9.425781 12.507812 -8.628906 11.9375 -7.859375 C 11.363281 -7.097656 10.53125 -6.664062 9.4375 -6.5625 C 10.226562 -6.300781 10.925781 -5.703125 11.53125 -4.765625 C 13 -2.398438 14.085938 -0.992188 14.796875 -0.546875 C 15.148438 -0.328125 15.59375 -0.210938 16.125 -0.203125 L 16.125 0 L 14.125 0 C 12.9375 0 11.953125 -0.15625 11.171875 -0.46875 C 10.390625 -0.78125 9.769531 -1.332031 9.3125 -2.125 C 9.0625 -2.570312 8.5 -3.738281 7.625 -5.625 C 7.238281 -6.445312 6.773438 -6.898438 6.234375 -6.984375 L 6.234375 -7.1875 L 6.859375 -7.1875 C 7.472656 -7.1875 8.015625 -7.367188 8.484375 -7.734375 C 8.960938 -8.109375 9.28125 -8.710938 9.4375 -9.546875 C 9.5 -9.828125 9.53125 -10.050781 9.53125 -10.21875 C 9.53125 -11.332031 9.300781 -12.140625 8.84375 -12.640625 C 8.394531 -13.140625 7.816406 -13.394531 7.109375 -13.40625 C 6.972656 -13.40625 6.769531 -13.40625 6.5 -13.40625 Z M 6.5 -13.40625 "/></g></g></g><g fill="#9f7944" fill-opacity="1"><g transform="translate(164.379209, 77.783354)"><g><path d="M 1.125 -0.203125 C 1.476562 -0.203125 1.78125 -0.328125 2.03125 -0.578125 C 2.28125 -0.828125 2.414062 -1.128906 2.4375 -1.484375 L 2.4375 -12.875 C 2.40625 -13.226562 2.300781 -13.488281 2.125 -13.65625 C 1.800781 -13.957031 1.46875 -14.109375 1.125 -14.109375 L 0.859375 -14.109375 L 0.859375 -14.3125 L 8.6875 -14.3125 C 9.351562 -14.3125 9.90625 -14.359375 10.34375 -14.453125 C 10.78125 -14.554688 11.046875 -14.628906 11.140625 -14.671875 L 11.140625 -11.09375 L 10.9375 -11.125 L 10.9375 -11.34375 C 10.9375 -12.1875 10.625 -12.785156 10 -13.140625 C 9.695312 -13.316406 9.34375 -13.410156 8.9375 -13.421875 L 5.5 -13.421875 L 5.5 -7.484375 L 8.203125 -7.484375 C 8.703125 -7.492188 9.113281 -7.664062 9.4375 -8 C 9.769531 -8.332031 9.9375 -8.742188 9.9375 -9.234375 L 9.9375 -9.421875 L 10.140625 -9.421875 L 10.140625 -4.703125 L 9.9375 -4.703125 L 9.9375 -4.859375 C 9.9375 -5.367188 9.773438 -5.785156 9.453125 -6.109375 C 9.128906 -6.429688 8.722656 -6.601562 8.234375 -6.625 L 5.5 -6.625 L 5.5 -0.875 L 8.171875 -0.875 C 9.171875 -0.875 10.003906 -1.160156 10.671875 -1.734375 C 11.347656 -2.304688 11.851562 -3.117188 12.1875 -4.171875 L 12.390625 -4.171875 L 11.4375 0 L 0.859375 0 L 0.859375 -0.203125 Z M 1.125 -0.203125 "/></g></g></g><g transform="matrix(1, 0, 0, 1, 23, 86)"><g clip-path="url(#c46ad9cca0)"><g fill="#13325b" fill-opacity="1"><g transform="translate(0.834366, 25.255968)"><g><path d="M 23.703125 -23.515625 C 23.929688 -23.515625 24.164062 -23.507812 24.40625 -23.5 L 24.40625 -23.234375 C 22.351562 -23.078125 20.878906 -22.101562 19.984375 -20.3125 C 19.390625 -19.15625 19.09375 -17.679688 19.09375 -15.890625 L 19.09375 -6.59375 C 19.0625 -4.40625 18.359375 -2.695312 16.984375 -1.46875 C 15.609375 -0.25 13.648438 0.359375 11.109375 0.359375 C 8.566406 0.359375 6.539062 -0.265625 5.03125 -1.515625 C 3.519531 -2.773438 2.769531 -4.457031 2.78125 -6.5625 L 2.78125 -16.703125 C 2.78125 -17.066406 2.644531 -17.367188 2.375 -17.609375 C 2.113281 -17.847656 1.789062 -17.96875 1.40625 -17.96875 L 0.984375 -17.96875 L 0.984375 -18.234375 L 8.484375 -18.234375 L 8.484375 -17.96875 L 8.078125 -17.96875 C 7.535156 -17.96875 7.132812 -17.757812 6.875 -17.34375 C 6.75 -17.15625 6.6875 -16.945312 6.6875 -16.71875 L 6.6875 -6.765625 C 6.6875 -4.929688 7.164062 -3.472656 8.125 -2.390625 C 9.082031 -1.316406 10.34375 -0.78125 11.90625 -0.78125 C 11.914062 -0.78125 11.921875 -0.78125 11.921875 -0.78125 C 11.921875 -0.78125 11.929688 -0.78125 11.953125 -0.78125 C 13.503906 -0.78125 14.773438 -1.28125 15.765625 -2.28125 C 16.753906 -3.289062 17.25 -4.675781 17.25 -6.4375 L 17.25 -15.890625 C 17.25 -18.234375 17.867188 -20.085938 19.109375 -21.453125 C 20.347656 -22.828125 21.878906 -23.515625 23.703125 -23.515625 Z M 23.703125 -23.515625 "/></g></g></g><g fill="#13325b" fill-opacity="1"><g transform="translate(23.599282, 25.255968)"><g><path d="M 21.28125 -17.96875 C 20.84375 -17.96875 20.46875 -17.816406 20.15625 -17.515625 C 19.84375 -17.210938 19.679688 -16.84375 19.671875 -16.40625 L 19.671875 -2.96875 C 19.671875 -1.800781 19.75 -0.820312 19.90625 -0.03125 L 19.984375 0.359375 L 19.75 0.359375 L 6.59375 -12.15625 L 6.59375 -1.828125 C 6.59375 -1.390625 6.75 -1.019531 7.0625 -0.71875 C 7.375 -0.414062 7.742188 -0.265625 8.171875 -0.265625 L 8.671875 -0.265625 L 8.671875 0 L 0.78125 0 L 0.78125 -0.265625 L 1.25 -0.265625 C 1.695312 -0.265625 2.078125 -0.414062 2.390625 -0.71875 C 2.703125 -1.019531 2.859375 -1.394531 2.859375 -1.84375 L 2.859375 -15.375 C 2.859375 -16.519531 2.78125 -17.472656 2.625 -18.234375 L 2.578125 -18.625 L 2.8125 -18.625 L 15.96875 -6.09375 L 15.96875 -16.390625 C 15.945312 -16.835938 15.78125 -17.210938 15.46875 -17.515625 C 15.15625 -17.816406 14.785156 -17.96875 14.359375 -17.96875 L 13.890625 -17.96875 L 13.890625 -18.234375 L 21.78125 -18.234375 L 21.78125 -17.96875 Z M 21.28125 -17.96875 "/></g></g></g><g fill="#13325b" fill-opacity="1"><g transform="translate(47.432084, 25.255968)"><g><path d="M 1.4375 -0.265625 C 1.882812 -0.265625 2.269531 -0.421875 2.59375 -0.734375 C 2.914062 -1.054688 3.082031 -1.445312 3.09375 -1.90625 L 3.09375 -16.359375 C 3.082031 -16.804688 2.914062 -17.1875 2.59375 -17.5 C 2.269531 -17.8125 1.882812 -17.96875 1.4375 -17.96875 L 1.09375 -17.96875 L 1.09375 -18.234375 L 9.015625 -18.234375 L 8.984375 -17.96875 L 8.671875 -17.96875 C 8.222656 -17.96875 7.832031 -17.8125 7.5 -17.5 C 7.164062 -17.1875 7 -16.804688 7 -16.359375 L 7 -1.90625 C 7 -1.445312 7.164062 -1.054688 7.5 -0.734375 C 7.832031 -0.421875 8.222656 -0.265625 8.671875 -0.265625 L 8.984375 -0.265625 L 9.015625 0 L 1.09375 0 L 1.09375 -0.265625 Z M 1.4375 -0.265625 "/></g></g></g><g fill="#13325b" fill-opacity="1"><g transform="translate(58.788816, 25.255968)"><g><path d="M 19.71875 -17.96875 L 19.484375 -17.96875 C 19.085938 -17.96875 18.6875 -17.847656 18.28125 -17.609375 C 17.882812 -17.367188 17.554688 -17.003906 17.296875 -16.515625 L 11.125 -2.890625 C 10.320312 -1.171875 9.894531 -0.0351562 9.84375 0.515625 L 9.609375 0.515625 L 1.71875 -16.484375 C 1.457031 -16.972656 1.128906 -17.34375 0.734375 -17.59375 C 0.335938 -17.84375 -0.0664062 -17.96875 -0.484375 -17.96875 L -0.703125 -17.96875 L -0.703125 -18.234375 L 7.578125 -18.234375 L 7.578125 -17.96875 L 7.375 -17.96875 C 6.988281 -17.96875 6.703125 -17.847656 6.515625 -17.609375 C 6.335938 -17.378906 6.25 -17.160156 6.25 -16.953125 C 6.25 -16.742188 6.285156 -16.535156 6.359375 -16.328125 L 10.78125 -5.578125 L 15.375 -16.328125 C 15.457031 -16.554688 15.5 -16.769531 15.5 -16.96875 C 15.5 -17.164062 15.40625 -17.378906 15.21875 -17.609375 C 15.039062 -17.847656 14.765625 -17.96875 14.390625 -17.96875 L 14.15625 -17.96875 L 14.15625 -18.234375 L 19.71875 -18.234375 Z M 19.71875 -17.96875 "/></g></g></g><g fill="#13325b" fill-opacity="1"><g transform="translate(79.027261, 25.255968)"><g><path d="M 1.4375 -0.265625 C 1.882812 -0.265625 2.269531 -0.421875 2.59375 -0.734375 C 2.914062 -1.054688 3.082031 -1.445312 3.09375 -1.90625 L 3.09375 -16.40625 C 3.039062 -17.019531 2.753906 -17.472656 2.234375 -17.765625 C 1.972656 -17.898438 1.707031 -17.96875 1.4375 -17.96875 L 1.09375 -17.96875 L 1.09375 -18.234375 L 11.0625 -18.234375 C 11.601562 -18.234375 12.195312 -18.285156 12.84375 -18.390625 C 13.488281 -18.492188 13.941406 -18.597656 14.203125 -18.703125 L 14.203125 -14.140625 L 13.9375 -14.140625 L 13.9375 -14.453125 C 13.9375 -15.234375 13.703125 -15.863281 13.234375 -16.34375 C 12.773438 -16.820312 12.15625 -17.078125 11.375 -17.109375 L 7 -17.109375 L 7 -9.53125 L 10.4375 -9.53125 C 11.082031 -9.550781 11.613281 -9.769531 12.03125 -10.1875 C 12.445312 -10.613281 12.65625 -11.140625 12.65625 -11.765625 L 12.65625 -12 L 12.921875 -12 L 12.921875 -5.984375 L 12.65625 -5.984375 L 12.65625 -6.203125 C 12.65625 -7.066406 12.304688 -7.707031 11.609375 -8.125 C 11.265625 -8.3125 10.882812 -8.414062 10.46875 -8.4375 L 7 -8.4375 L 7 -1.125 L 10.421875 -1.125 C 11.679688 -1.125 12.742188 -1.488281 13.609375 -2.21875 C 14.472656 -2.945312 15.113281 -3.976562 15.53125 -5.3125 L 15.78125 -5.3125 L 14.59375 0 L 1.09375 0 L 1.09375 -0.265625 Z M 1.4375 -0.265625 "/></g></g></g><g fill="#13325b" fill-opacity="1"><g transform="translate(96.765282, 25.255968)"><g><path d="M 8.28125 -17.09375 L 7.15625 -17.09375 C 7.125 -17.09375 7.097656 -17.09375 7.078125 -17.09375 L 7.078125 -1.90625 C 7.097656 -1.257812 7.378906 -0.78125 7.921875 -0.46875 C 8.179688 -0.332031 8.457031 -0.265625 8.75 -0.265625 L 9.09375 -0.265625 L 9.09375 0 L 1.171875 0 L 1.171875 -0.265625 L 1.515625 -0.265625 C 2.140625 -0.265625 2.613281 -0.53125 2.9375 -1.0625 C 3.082031 -1.3125 3.160156 -1.582031 3.171875 -1.875 L 3.171875 -16.328125 C 3.160156 -16.785156 2.992188 -17.171875 2.671875 -17.484375 C 2.347656 -17.804688 1.960938 -17.96875 1.515625 -17.96875 L 1.171875 -17.96875 L 1.171875 -18.234375 L 10.109375 -18.234375 C 11.785156 -18.234375 13.207031 -17.867188 14.375 -17.140625 C 14.96875 -16.773438 15.4375 -16.265625 15.78125 -15.609375 C 16.132812 -14.960938 16.3125 -14.222656 16.3125 -13.390625 C 16.3125 -12.566406 16.164062 -11.804688 15.875 -11.109375 C 15.59375 -10.421875 15.113281 -9.816406 14.4375 -9.296875 C 13.769531 -8.773438 12.96875 -8.460938 12.03125 -8.359375 C 13.039062 -8.023438 13.925781 -7.257812 14.6875 -6.0625 C 16.5625 -3.0625 17.953125 -1.273438 18.859375 -0.703125 C 19.304688 -0.421875 19.867188 -0.273438 20.546875 -0.265625 L 20.546875 0 L 18 0 C 16.519531 0 15.285156 -0.203125 14.296875 -0.609375 C 13.304688 -1.015625 12.5 -1.710938 11.875 -2.703125 C 11.5625 -3.210938 11.160156 -3.972656 10.671875 -4.984375 C 10.191406 -6.003906 9.875 -6.726562 9.71875 -7.15625 C 9.25 -8.195312 8.65625 -8.78125 7.9375 -8.90625 L 7.9375 -9.171875 L 8.75 -9.171875 C 9.53125 -9.171875 10.21875 -9.40625 10.8125 -9.875 C 11.414062 -10.34375 11.820312 -11.101562 12.03125 -12.15625 C 12.101562 -12.519531 12.140625 -12.8125 12.140625 -13.03125 C 12.140625 -14.445312 11.851562 -15.472656 11.28125 -16.109375 C 10.707031 -16.742188 9.96875 -17.070312 9.0625 -17.09375 C 8.882812 -17.09375 8.625 -17.09375 8.28125 -17.09375 Z M 8.28125 -17.09375 "/></g></g></g><g fill="#13325b" fill-opacity="1"><g transform="translate(117.498599, 25.255968)"><g><path d="M 1.296875 -2.421875 C 1.296875 -3.671875 1.566406 -4.738281 2.109375 -5.625 L 2.34375 -5.625 C 2.320312 -5.488281 2.3125 -5.347656 2.3125 -5.203125 C 2.3125 -4.003906 2.738281 -2.957031 3.59375 -2.0625 C 4.457031 -1.175781 5.640625 -0.734375 7.140625 -0.734375 C 8.296875 -0.734375 9.195312 -1.007812 9.84375 -1.5625 C 10.5 -2.113281 10.828125 -2.816406 10.828125 -3.671875 C 10.828125 -4.691406 10.132812 -5.585938 8.75 -6.359375 L 4.21875 -9.34375 C 3.3125 -9.863281 2.660156 -10.492188 2.265625 -11.234375 C 1.878906 -11.972656 1.6875 -12.726562 1.6875 -13.5 C 1.6875 -15.125 2.203125 -16.378906 3.234375 -17.265625 C 4.273438 -18.148438 5.601562 -18.59375 7.21875 -18.59375 C 8.164062 -18.59375 9.34375 -18.507812 10.75 -18.34375 L 12.390625 -18.34375 L 12.0625 -14.515625 L 11.796875 -14.515625 C 11.796875 -15.410156 11.460938 -16.128906 10.796875 -16.671875 C 10.128906 -17.222656 9.238281 -17.5 8.125 -17.5 C 6.769531 -17.5 5.789062 -17.082031 5.1875 -16.25 C 4.875 -15.851562 4.71875 -15.40625 4.71875 -14.90625 C 4.71875 -14.070312 5.320312 -13.296875 6.53125 -12.578125 L 11.515625 -9.34375 C 13.078125 -8.445312 13.859375 -7.117188 13.859375 -5.359375 C 13.859375 -3.503906 13.226562 -2.085938 11.96875 -1.109375 C 10.707031 -0.128906 9.035156 0.359375 6.953125 0.359375 C 5.773438 0.359375 4.6875 0.21875 3.6875 -0.0625 C 2.6875 -0.351562 1.953125 -0.738281 1.484375 -1.21875 C 1.359375 -1.550781 1.296875 -1.953125 1.296875 -2.421875 Z M 1.296875 -2.421875 "/></g></g></g><g fill="#13325b" fill-opacity="1"><g transform="translate(133.856178, 25.255968)"><g><path d="M 1.4375 -0.265625 C 1.882812 -0.265625 2.269531 -0.421875 2.59375 -0.734375 C 2.914062 -1.054688 3.082031 -1.445312 3.09375 -1.90625 L 3.09375 -16.359375 C 3.082031 -16.804688 2.914062 -17.1875 2.59375 -17.5 C 2.269531 -17.8125 1.882812 -17.96875 1.4375 -17.96875 L 1.09375 -17.96875 L 1.09375 -18.234375 L 9.015625 -18.234375 L 8.984375 -17.96875 L 8.671875 -17.96875 C 8.222656 -17.96875 7.832031 -17.8125 7.5 -17.5 C 7.164062 -17.1875 7 -16.804688 7 -16.359375 L 7 -1.90625 C 7 -1.445312 7.164062 -1.054688 7.5 -0.734375 C 7.832031 -0.421875 8.222656 -0.265625 8.671875 -0.265625 L 8.984375 -0.265625 L 9.015625 0 L 1.09375 0 L 1.09375 -0.265625 Z M 1.4375 -0.265625 "/></g></g></g><g fill="#13325b" fill-opacity="1"><g transform="translate(145.212909, 25.255968)"><g><path d="M 10.65625 -17.171875 L 10.65625 -1.875 C 10.664062 -1.425781 10.832031 -1.046875 11.15625 -0.734375 C 11.476562 -0.421875 11.863281 -0.265625 12.3125 -0.265625 L 12.625 -0.265625 L 12.65625 0 L 4.734375 0 L 4.734375 -0.265625 L 5.078125 -0.265625 C 5.515625 -0.265625 5.890625 -0.421875 6.203125 -0.734375 C 6.523438 -1.046875 6.707031 -1.414062 6.75 -1.84375 L 6.75 -17.171875 L 3.234375 -17.171875 C 2.429688 -17.148438 1.796875 -16.894531 1.328125 -16.40625 C 0.859375 -15.925781 0.625 -15.296875 0.625 -14.515625 L 0.625 -14.203125 L 0.359375 -14.203125 L 0.359375 -18.734375 C 0.609375 -18.628906 1.046875 -18.523438 1.671875 -18.421875 C 2.304688 -18.316406 2.894531 -18.265625 3.4375 -18.265625 L 13.9375 -18.265625 C 14.789062 -18.273438 15.484375 -18.34375 16.015625 -18.46875 C 16.554688 -18.59375 16.890625 -18.679688 17.015625 -18.734375 L 17.015625 -14.203125 L 16.75 -14.203125 L 16.75 -14.515625 C 16.75 -15.296875 16.515625 -15.925781 16.046875 -16.40625 C 15.578125 -16.894531 14.941406 -17.148438 14.140625 -17.171875 Z M 10.65625 -17.171875 "/></g></g></g><g fill="#13325b" fill-opacity="1"><g transform="translate(163.862547, 25.255968)"><g><path d="M 19.15625 -17.96875 L 18.78125 -17.96875 C 18.257812 -17.96875 17.765625 -17.820312 17.296875 -17.53125 C 16.828125 -17.238281 16.457031 -16.882812 16.1875 -16.46875 L 11.046875 -8.28125 L 11.046875 -1.90625 C 11.046875 -1.445312 11.207031 -1.054688 11.53125 -0.734375 C 11.863281 -0.421875 12.257812 -0.265625 12.71875 -0.265625 L 13.03125 -0.265625 L 13.0625 0 L 5.140625 0 L 5.140625 -0.265625 L 5.46875 -0.265625 C 5.925781 -0.265625 6.3125 -0.421875 6.625 -0.734375 C 6.945312 -1.046875 7.117188 -1.425781 7.140625 -1.875 L 7.140625 -8.3125 L 2.171875 -16.484375 C 1.910156 -16.898438 1.539062 -17.25 1.0625 -17.53125 C 0.582031 -17.820312 0.09375 -17.96875 -0.40625 -17.96875 L -0.78125 -17.96875 L -0.78125 -18.234375 L 7.84375 -18.234375 L 7.84375 -17.96875 L 7.5 -17.96875 C 7.125 -17.96875 6.832031 -17.796875 6.625 -17.453125 C 6.519531 -17.265625 6.46875 -17.078125 6.46875 -16.890625 C 6.46875 -16.710938 6.507812 -16.535156 6.59375 -16.359375 L 10.3125 -9.578125 L 14.171875 -16.359375 C 14.273438 -16.535156 14.328125 -16.710938 14.328125 -16.890625 C 14.328125 -17.078125 14.269531 -17.253906 14.15625 -17.421875 C 13.945312 -17.785156 13.648438 -17.96875 13.265625 -17.96875 L 12.953125 -17.96875 L 12.953125 -18.234375 L 19.15625 -18.234375 Z M 19.15625 -17.96875 "/></g></g></g></g></g><g transform="matrix(1, 0, 0, 1, 97, 253)"><g clip-path="url(#5f788f56fa)"><g fill="#13325b" fill-opacity="1"><g transform="translate(0.984916, 14.23722)"><g><path d="M 1.234375 0 L 1.234375 -0.671875 L 2.28125 -0.671875 C 2.382812 -0.671875 2.472656 -0.679688 2.546875 -0.703125 C 2.628906 -0.734375 2.695312 -0.78125 2.75 -0.84375 C 2.8125 -0.90625 2.851562 -0.988281 2.875 -1.09375 C 2.894531 -1.207031 2.90625 -1.34375 2.90625 -1.5 L 2.90625 -7.875 C 2.75 -7.675781 2.597656 -7.492188 2.453125 -7.328125 C 2.304688 -7.171875 2.164062 -7.035156 2.03125 -6.921875 C 1.90625 -6.804688 1.78125 -6.710938 1.65625 -6.640625 C 1.53125 -6.578125 1.398438 -6.546875 1.265625 -6.546875 C 1.171875 -6.546875 1.078125 -6.566406 0.984375 -6.609375 C 0.890625 -6.660156 0.8125 -6.726562 0.75 -6.8125 C 0.6875 -6.894531 0.632812 -6.992188 0.59375 -7.109375 C 0.550781 -7.222656 0.53125 -7.347656 0.53125 -7.484375 C 0.664062 -7.523438 0.800781 -7.566406 0.9375 -7.609375 C 1.082031 -7.660156 1.234375 -7.722656 1.390625 -7.796875 C 1.546875 -7.867188 1.710938 -7.957031 1.890625 -8.0625 C 2.078125 -8.175781 2.273438 -8.3125 2.484375 -8.46875 L 3.390625 -9.125 L 4.8125 -9.125 L 4.8125 -1.5 C 4.8125 -1.363281 4.816406 -1.242188 4.828125 -1.140625 C 4.847656 -1.046875 4.878906 -0.960938 4.921875 -0.890625 C 4.972656 -0.816406 5.039062 -0.757812 5.125 -0.71875 C 5.21875 -0.6875 5.328125 -0.671875 5.453125 -0.671875 L 6.484375 -0.671875 L 6.484375 0 Z M 1.234375 0 "/></g></g></g><g fill="#13325b" fill-opacity="1"><g transform="translate(9.618312, 14.23722)"><g><path d="M 2.890625 0.125 C 2.503906 0.125 2.175781 0.0820312 1.90625 0 C 1.644531 -0.0820312 1.429688 -0.1875 1.265625 -0.3125 C 1.097656 -0.445312 0.976562 -0.597656 0.90625 -0.765625 C 0.832031 -0.941406 0.796875 -1.125 0.796875 -1.3125 C 0.796875 -1.5 0.84375 -1.65625 0.9375 -1.78125 C 1.039062 -1.90625 1.203125 -1.988281 1.421875 -2.03125 C 1.484375 -1.84375 1.554688 -1.664062 1.640625 -1.5 C 1.734375 -1.332031 1.835938 -1.1875 1.953125 -1.0625 C 2.078125 -0.945312 2.222656 -0.851562 2.390625 -0.78125 C 2.554688 -0.707031 2.742188 -0.671875 2.953125 -0.671875 C 3.523438 -0.671875 3.960938 -0.976562 4.265625 -1.59375 C 4.578125 -2.21875 4.753906 -3.140625 4.796875 -4.359375 C 4.691406 -4.234375 4.578125 -4.117188 4.453125 -4.015625 C 4.335938 -3.910156 4.203125 -3.816406 4.046875 -3.734375 C 3.890625 -3.660156 3.71875 -3.601562 3.53125 -3.5625 C 3.351562 -3.519531 3.15625 -3.5 2.9375 -3.5 C 2.570312 -3.5 2.238281 -3.554688 1.9375 -3.671875 C 1.632812 -3.785156 1.367188 -3.953125 1.140625 -4.171875 C 0.921875 -4.390625 0.75 -4.660156 0.625 -4.984375 C 0.507812 -5.316406 0.453125 -5.695312 0.453125 -6.125 C 0.453125 -6.582031 0.515625 -7 0.640625 -7.375 C 0.773438 -7.757812 0.96875 -8.085938 1.21875 -8.359375 C 1.46875 -8.628906 1.769531 -8.835938 2.125 -8.984375 C 2.488281 -9.128906 2.898438 -9.203125 3.359375 -9.203125 C 3.816406 -9.203125 4.238281 -9.117188 4.625 -8.953125 C 5.019531 -8.796875 5.359375 -8.539062 5.640625 -8.1875 C 5.921875 -7.84375 6.140625 -7.398438 6.296875 -6.859375 C 6.460938 -6.328125 6.546875 -5.6875 6.546875 -4.9375 C 6.546875 -4.238281 6.472656 -3.582031 6.328125 -2.96875 C 6.191406 -2.351562 5.976562 -1.816406 5.6875 -1.359375 C 5.394531 -0.898438 5.019531 -0.535156 4.5625 -0.265625 C 4.101562 -0.00390625 3.546875 0.125 2.890625 0.125 Z M 3.484375 -4.421875 C 3.785156 -4.421875 4.046875 -4.492188 4.265625 -4.640625 C 4.492188 -4.796875 4.671875 -5.003906 4.796875 -5.265625 C 4.785156 -5.804688 4.742188 -6.269531 4.671875 -6.65625 C 4.609375 -7.050781 4.519531 -7.375 4.40625 -7.625 C 4.289062 -7.875 4.148438 -8.054688 3.984375 -8.171875 C 3.816406 -8.296875 3.632812 -8.359375 3.4375 -8.359375 C 3.070312 -8.359375 2.789062 -8.175781 2.59375 -7.8125 C 2.394531 -7.457031 2.296875 -6.921875 2.296875 -6.203125 C 2.296875 -5.617188 2.394531 -5.175781 2.59375 -4.875 C 2.789062 -4.570312 3.085938 -4.421875 3.484375 -4.421875 Z M 3.484375 -4.421875 "/></g></g></g><g fill="#13325b" fill-opacity="1"><g transform="translate(18.251707, 14.23722)"><g><path d="M 0.375 -2.3125 C 0.375 -2.582031 0.414062 -2.828125 0.5 -3.046875 C 0.59375 -3.273438 0.722656 -3.476562 0.890625 -3.65625 C 1.054688 -3.832031 1.253906 -3.992188 1.484375 -4.140625 C 1.710938 -4.296875 1.96875 -4.445312 2.25 -4.59375 C 1.738281 -4.882812 1.347656 -5.210938 1.078125 -5.578125 C 0.804688 -5.953125 0.671875 -6.390625 0.671875 -6.890625 C 0.671875 -7.179688 0.722656 -7.46875 0.828125 -7.75 C 0.929688 -8.03125 1.097656 -8.273438 1.328125 -8.484375 C 1.554688 -8.703125 1.859375 -8.875 2.234375 -9 C 2.617188 -9.132812 3.082031 -9.203125 3.625 -9.203125 C 4.070312 -9.203125 4.460938 -9.144531 4.796875 -9.03125 C 5.140625 -8.925781 5.425781 -8.773438 5.65625 -8.578125 C 5.882812 -8.378906 6.050781 -8.144531 6.15625 -7.875 C 6.269531 -7.601562 6.328125 -7.304688 6.328125 -6.984375 C 6.328125 -6.734375 6.285156 -6.507812 6.203125 -6.3125 C 6.128906 -6.113281 6.015625 -5.9375 5.859375 -5.78125 C 5.710938 -5.625 5.535156 -5.472656 5.328125 -5.328125 C 5.117188 -5.191406 4.878906 -5.054688 4.609375 -4.921875 C 4.992188 -4.734375 5.320312 -4.546875 5.59375 -4.359375 C 5.863281 -4.171875 6.082031 -3.972656 6.25 -3.765625 C 6.414062 -3.566406 6.535156 -3.351562 6.609375 -3.125 C 6.679688 -2.894531 6.71875 -2.65625 6.71875 -2.40625 C 6.71875 -2 6.644531 -1.640625 6.5 -1.328125 C 6.351562 -1.015625 6.140625 -0.75 5.859375 -0.53125 C 5.585938 -0.320312 5.25 -0.160156 4.84375 -0.046875 C 4.4375 0.0664062 3.976562 0.125 3.46875 0.125 C 2.9375 0.125 2.476562 0.0625 2.09375 -0.0625 C 1.707031 -0.195312 1.382812 -0.375 1.125 -0.59375 C 0.875 -0.8125 0.6875 -1.066406 0.5625 -1.359375 C 0.4375 -1.660156 0.375 -1.976562 0.375 -2.3125 Z M 3.53125 -0.59375 C 3.75 -0.59375 3.945312 -0.628906 4.125 -0.703125 C 4.300781 -0.785156 4.453125 -0.894531 4.578125 -1.03125 C 4.703125 -1.175781 4.796875 -1.347656 4.859375 -1.546875 C 4.929688 -1.742188 4.96875 -1.957031 4.96875 -2.1875 C 4.96875 -2.394531 4.929688 -2.582031 4.859375 -2.75 C 4.785156 -2.914062 4.671875 -3.070312 4.515625 -3.21875 C 4.367188 -3.363281 4.175781 -3.503906 3.9375 -3.640625 C 3.707031 -3.785156 3.429688 -3.929688 3.109375 -4.078125 C 2.960938 -3.984375 2.828125 -3.878906 2.703125 -3.765625 C 2.578125 -3.648438 2.46875 -3.519531 2.375 -3.375 C 2.289062 -3.226562 2.222656 -3.0625 2.171875 -2.875 C 2.117188 -2.695312 2.09375 -2.492188 2.09375 -2.265625 C 2.09375 -2.015625 2.125 -1.785156 2.1875 -1.578125 C 2.257812 -1.378906 2.359375 -1.207031 2.484375 -1.0625 C 2.617188 -0.914062 2.769531 -0.800781 2.9375 -0.71875 C 3.113281 -0.632812 3.3125 -0.59375 3.53125 -0.59375 Z M 4.734375 -7 C 4.734375 -7.1875 4.707031 -7.367188 4.65625 -7.546875 C 4.601562 -7.722656 4.523438 -7.878906 4.421875 -8.015625 C 4.328125 -8.148438 4.207031 -8.257812 4.0625 -8.34375 C 3.914062 -8.425781 3.742188 -8.46875 3.546875 -8.46875 C 3.367188 -8.46875 3.210938 -8.429688 3.078125 -8.359375 C 2.941406 -8.285156 2.828125 -8.1875 2.734375 -8.0625 C 2.648438 -7.9375 2.582031 -7.785156 2.53125 -7.609375 C 2.488281 -7.441406 2.46875 -7.253906 2.46875 -7.046875 C 2.46875 -6.828125 2.492188 -6.632812 2.546875 -6.46875 C 2.609375 -6.300781 2.695312 -6.148438 2.8125 -6.015625 C 2.9375 -5.890625 3.082031 -5.773438 3.25 -5.671875 C 3.414062 -5.566406 3.613281 -5.460938 3.84375 -5.359375 C 4 -5.441406 4.128906 -5.535156 4.234375 -5.640625 C 4.347656 -5.742188 4.441406 -5.863281 4.515625 -6 C 4.585938 -6.132812 4.640625 -6.28125 4.671875 -6.4375 C 4.710938 -6.601562 4.734375 -6.789062 4.734375 -7 Z M 4.734375 -7 "/></g></g></g><g fill="#13325b" fill-opacity="1"><g transform="translate(26.885102, 14.23722)"><g><path d="M 4.078125 -8.453125 C 3.828125 -8.453125 3.601562 -8.378906 3.40625 -8.234375 C 3.207031 -8.085938 3.035156 -7.867188 2.890625 -7.578125 C 2.742188 -7.296875 2.625 -6.945312 2.53125 -6.53125 C 2.445312 -6.113281 2.390625 -5.632812 2.359375 -5.09375 C 2.453125 -5.15625 2.550781 -5.210938 2.65625 -5.265625 C 2.769531 -5.328125 2.898438 -5.378906 3.046875 -5.421875 C 3.191406 -5.460938 3.351562 -5.5 3.53125 -5.53125 C 3.707031 -5.5625 3.90625 -5.578125 4.125 -5.578125 C 4.507812 -5.578125 4.859375 -5.515625 5.171875 -5.390625 C 5.484375 -5.265625 5.75 -5.085938 5.96875 -4.859375 C 6.1875 -4.640625 6.351562 -4.367188 6.46875 -4.046875 C 6.59375 -3.722656 6.65625 -3.351562 6.65625 -2.9375 C 6.65625 -2.476562 6.59375 -2.0625 6.46875 -1.6875 C 6.351562 -1.3125 6.171875 -0.988281 5.921875 -0.71875 C 5.671875 -0.457031 5.363281 -0.25 5 -0.09375 C 4.632812 0.0507812 4.207031 0.125 3.71875 0.125 C 3.25 0.125 2.820312 0.0390625 2.4375 -0.125 C 2.050781 -0.300781 1.71875 -0.566406 1.4375 -0.921875 C 1.164062 -1.273438 0.953125 -1.722656 0.796875 -2.265625 C 0.648438 -2.816406 0.578125 -3.460938 0.578125 -4.203125 C 0.578125 -4.898438 0.648438 -5.550781 0.796875 -6.15625 C 0.941406 -6.769531 1.160156 -7.300781 1.453125 -7.75 C 1.753906 -8.195312 2.132812 -8.550781 2.59375 -8.8125 C 3.050781 -9.070312 3.585938 -9.203125 4.203125 -9.203125 C 4.609375 -9.203125 4.953125 -9.160156 5.234375 -9.078125 C 5.523438 -9.003906 5.757812 -8.898438 5.9375 -8.765625 C 6.113281 -8.640625 6.242188 -8.492188 6.328125 -8.328125 C 6.410156 -8.160156 6.453125 -7.988281 6.453125 -7.8125 C 6.453125 -7.675781 6.421875 -7.546875 6.359375 -7.421875 C 6.304688 -7.304688 6.21875 -7.203125 6.09375 -7.109375 C 5.976562 -7.023438 5.820312 -6.953125 5.625 -6.890625 C 5.4375 -6.835938 5.203125 -6.8125 4.921875 -6.8125 C 4.921875 -7.007812 4.90625 -7.203125 4.875 -7.390625 C 4.851562 -7.585938 4.8125 -7.765625 4.75 -7.921875 C 4.6875 -8.078125 4.597656 -8.203125 4.484375 -8.296875 C 4.378906 -8.398438 4.242188 -8.453125 4.078125 -8.453125 Z M 3.65625 -4.796875 C 3.539062 -4.796875 3.414062 -4.773438 3.28125 -4.734375 C 3.15625 -4.703125 3.03125 -4.65625 2.90625 -4.59375 C 2.789062 -4.539062 2.6875 -4.476562 2.59375 -4.40625 C 2.5 -4.332031 2.421875 -4.257812 2.359375 -4.1875 C 2.367188 -3.570312 2.410156 -3.046875 2.484375 -2.609375 C 2.554688 -2.171875 2.65625 -1.8125 2.78125 -1.53125 C 2.90625 -1.25 3.050781 -1.039062 3.21875 -0.90625 C 3.382812 -0.78125 3.566406 -0.71875 3.765625 -0.71875 C 4.085938 -0.71875 4.34375 -0.882812 4.53125 -1.21875 C 4.71875 -1.550781 4.8125 -2.082031 4.8125 -2.8125 C 4.8125 -3.5 4.707031 -4 4.5 -4.3125 C 4.300781 -4.632812 4.019531 -4.796875 3.65625 -4.796875 Z M 3.65625 -4.796875 "/></g></g></g></g></g></g></g></svg>